<?xml version="1.0" encoding="UTF-8"?>
<svg id="Layer_2" data-name="Layer 2" xmlns="http://www.w3.org/2000/svg" viewBox="0 0 1190.75 226.38">
  <defs>
    <style>
      .cls-1 {
        fill: #0fc4d5;
      }
    </style>
  </defs>
  <g id="Camada_1" data-name="Camada 1">
    <g>
      <g>
        <polygon class="cls-1" points="858.18 119.48 832.79 221.29 873.43 221.29 893.45 141.04 858.18 119.48"/>
        <g>
          <polygon class="cls-1" points="980.75 109.23 954.92 5.65 886.57 5.65 860.74 109.23 901.39 109.23 920.74 31.67 940.1 109.23 980.75 109.23"/>
          <polygon class="cls-1" points="983.3 119.48 948.03 141.04 968.06 221.29 1008.69 221.29 983.3 119.48"/>
        </g>
      </g>
      <path class="cls-1" d="M120.59,105.92c6.75-6.83,17.69-21.09,17.69-41.82,0-27.81-20.95-56.83-61.16-58.48H0v215.06h80.21c44.06,0,67.83-32.39,67.83-62.86,0-24.36-13.83-42.37-27.46-51.9ZM40.07,125.69h40.55c15.59.21,27.35,14.02,27.35,32.12,0,16.45-11.84,28.93-27.52,29.03h-40.38v-61.16ZM75.84,91.88l-35.77-.02v-52.43h35.24c11.1.2,22.9,8.92,22.9,24.67s-9.47,27.33-22.38,27.77Z"/>
      <polygon class="cls-1" points="218.6 5.64 178.53 5.64 178.53 220.67 304.56 220.67 304.56 186.84 218.6 186.84 218.6 5.64"/>
      <path class="cls-1" d="M430.74,149.68c0,27.21-13.1,42.82-35.94,42.82s-32.99-15.61-32.99-42.82V5.61h-40.07v143.76c.29,46.78,27.18,77.01,73.07,77.01s75.73-30.23,76.01-77.04V5.61h-40.07v144.07Z"/>
      <path class="cls-1" d="M603.86,95.74l-24.13-7.19c-17-4.04-25.61-13.57-25.61-28.32,0-16.5,10.59-26.35,33.26-26.35,24.7,0,33.26,21.87,33.26,36.65v4.42h40.07v-4.42c0-32.54-17.03-70.54-73.33-70.54-44.2,0-73.34,25.41-73.34,60.42s19.85,54.9,58.99,64.25l27.15,7.2c13.38,3.15,26.39,11.2,26.39,31.61,0,6.94-2.62,12.98-7.78,17.96-7.9,7.61-17.76,11.7-32.22,11.15-26.05-.96-39.23-22.97-39.23-42.81v-4.42h-40.28s0,4.41,0,4.41c0,36.23,26.02,75.39,79.7,76.59.81.02,1.63.03,2.44.03,24.64,0,44.37-8.41,59.56-23.27,11.54-11.29,17.9-25.37,17.9-39.65,0-36.04-19.96-57.56-62.79-67.72Z"/>
      <polygon class="cls-1" points="835.62 5.61 682.08 5.61 682.08 39.44 738.82 39.44 738.82 220.67 778.89 220.67 778.89 39.44 835.62 39.44 835.62 5.61"/>
      <path class="cls-1" d="M1140.67,132.57c26.75-9.49,43.73-32.95,43.73-61.18,0-38.11-30.16-65.77-71.71-65.77h-72.69v215.06h40.07v-83.52h20s47.46,83.52,47.46,83.52h43.22l-50.08-88.11ZM1080.06,39.45h32.59c18.35.12,31.67,13.55,31.67,31.94s-13.23,31.69-31.41,31.94h-32.85v-63.88Z"/>
    </g>
  </g>
</svg>