<svg width="1282" height="123" viewBox="0 0 1282 123" fill="none" xmlns="http://www.w3.org/2000/svg">
<g clip-path="url(#clip0_640_7042)">
<path d="M570.832 54.5008C576.032 54.5008 580.077 53.7786 582.966 52.334C587.506 50.064 589.776 45.978 589.776 40.076C589.776 34.1326 587.362 30.1292 582.533 28.0655C579.809 26.9099 575.764 26.3321 570.398 26.3321H548.421V54.5008H570.832ZM574.98 96.4754C582.533 96.4754 587.919 94.2879 591.138 89.913C593.161 87.1477 594.172 83.8046 594.172 79.8837C594.172 73.28 591.221 68.7813 585.319 66.3874C582.182 65.108 578.034 64.4682 572.875 64.4682H548.421V96.4754H574.98ZM536.348 16.0551H575.413C586.062 16.0551 593.635 19.2331 598.134 25.5892C600.775 29.345 602.096 33.6786 602.096 38.5901C602.096 44.3271 600.466 49.0322 597.205 52.7055C595.513 54.6453 593.078 56.42 589.9 58.0297C594.564 59.8044 598.051 61.8061 600.363 64.0349C604.449 67.9971 606.492 73.4657 606.492 80.4409C606.492 86.3016 604.655 91.6052 600.982 96.3516C595.492 103.451 586.763 107 574.794 107H536.348V16.0551ZM616.246 40.695H626.833V52.1483C627.699 49.9195 629.825 47.2162 633.209 44.0382C636.594 40.8189 640.494 39.2092 644.91 39.2092C645.117 39.2092 645.467 39.2299 645.963 39.2711C646.458 39.3124 647.304 39.3949 648.501 39.5188V51.2816C647.841 51.1577 647.221 51.0752 646.644 51.0339C646.107 50.9926 645.509 50.972 644.848 50.972C639.235 50.972 634.922 52.788 631.909 56.42C628.896 60.0108 627.39 64.1587 627.39 68.8638V107H616.246V40.695ZM662.899 89.3558C662.899 92.5751 664.075 95.1134 666.427 96.9707C668.78 98.828 671.566 99.7566 674.785 99.7566C678.706 99.7566 682.503 98.8486 686.176 97.0326C692.367 94.0197 695.463 89.0876 695.463 82.2362V73.2594C694.101 74.1261 692.347 74.8484 690.201 75.4262C688.054 76.004 685.949 76.4168 683.886 76.6644L677.138 77.5311C673.093 78.0677 670.059 78.9138 668.037 80.0694C664.611 82.0092 662.899 85.1047 662.899 89.3558ZM689.891 66.8208C692.45 66.4906 694.163 65.4175 695.03 63.6015C695.525 62.611 695.772 61.1871 695.772 59.3298C695.772 55.5327 694.41 52.788 691.686 51.0958C689.004 49.3624 685.145 48.4956 680.109 48.4956C674.29 48.4956 670.163 50.064 667.727 53.2007C666.365 54.9342 665.478 57.5138 665.065 60.9394H654.665C654.871 52.7674 657.512 47.0923 662.589 43.9143C667.707 40.695 673.629 39.0854 680.357 39.0854C688.158 39.0854 694.493 40.5712 699.363 43.5429C704.192 46.5145 706.607 51.1371 706.607 57.4106V95.6087C706.607 96.7643 706.834 97.693 707.288 98.3946C707.783 99.0962 708.794 99.4471 710.321 99.4471C710.816 99.4471 711.374 99.4264 711.993 99.3851C712.612 99.3026 713.272 99.1994 713.974 99.0756V107.31C712.24 107.805 710.92 108.114 710.012 108.238C709.104 108.362 707.865 108.424 706.297 108.424C702.459 108.424 699.673 107.062 697.939 104.338C697.031 102.893 696.392 100.85 696.02 98.2089C693.75 101.181 690.489 103.76 686.238 105.948C681.987 108.135 677.303 109.229 672.185 109.229C666.035 109.229 661 107.371 657.079 103.657C653.199 99.9011 651.26 95.2166 651.26 89.6035C651.26 83.4538 653.179 78.6868 657.017 75.3024C660.856 71.918 665.891 69.8337 672.123 69.0495L689.891 66.8208ZM721.128 40.695H731.715V50.1053C734.851 46.2256 738.174 43.4397 741.682 41.7475C745.19 40.0553 749.09 39.2092 753.383 39.2092C762.793 39.2092 769.149 42.4904 772.451 49.0528C774.267 52.6436 775.175 57.782 775.175 64.4682V107H763.846V65.2112C763.846 61.1664 763.247 57.9059 762.05 55.4295C760.069 51.3022 756.478 49.2385 751.278 49.2385C748.636 49.2385 746.47 49.5068 744.777 50.0434C741.723 50.9514 739.04 52.7674 736.729 55.4914C734.872 57.6789 733.654 59.9489 733.077 62.3014C732.54 64.6127 732.272 67.9352 732.272 72.2688V107H721.128V40.695ZM794.959 74.6214C794.959 81.7203 796.465 87.6636 799.478 92.4513C802.491 97.239 807.32 99.6328 813.965 99.6328C819.124 99.6328 823.354 97.4247 826.656 93.0085C829.999 88.551 831.671 82.1743 831.671 73.8785C831.671 65.5001 829.958 59.3091 826.532 55.3057C823.107 51.2609 818.876 49.2385 813.841 49.2385C808.228 49.2385 803.667 51.3847 800.159 55.6771C796.692 59.9695 794.959 66.2843 794.959 74.6214ZM811.736 39.5188C816.813 39.5188 821.064 40.5919 824.489 42.7381C826.471 43.9762 828.72 46.1431 831.238 49.2385V15.7456H841.948V107H831.919V97.7755C829.318 101.862 826.244 104.813 822.694 106.629C819.145 108.445 815.079 109.353 810.498 109.353C803.11 109.353 796.713 106.257 791.306 100.066C785.899 93.8339 783.196 85.5587 783.196 75.2405C783.196 65.5826 785.652 57.2249 790.563 50.1672C795.516 43.0682 802.574 39.5188 811.736 39.5188ZM895.693 77.6549C895.982 82.8141 897.199 87.0033 899.345 90.2226C903.431 96.2484 910.634 99.2613 920.952 99.2613C925.574 99.2613 929.784 98.601 933.581 97.2802C940.928 94.7213 944.601 90.14 944.601 83.5363C944.601 78.5836 943.053 75.0548 939.958 72.9498C936.821 70.8862 931.91 69.0908 925.223 67.5637L912.904 64.7778C904.855 62.9618 899.16 60.9601 895.817 58.7726C890.038 54.9755 887.149 49.3004 887.149 41.7475C887.149 33.5755 889.976 26.8686 895.631 21.627C901.285 16.3853 909.292 13.7645 919.652 13.7645C929.186 13.7645 937.275 16.0757 943.92 20.6983C950.606 25.2796 953.949 32.6262 953.949 42.7381H942.372C941.753 37.8678 940.433 34.1326 938.41 31.5325C934.654 26.7861 928.278 24.4129 919.28 24.4129C912.016 24.4129 906.795 25.94 903.617 28.9942C900.439 32.0484 898.85 35.5978 898.85 39.6426C898.85 44.1001 900.707 47.3606 904.422 49.4243C906.857 50.745 912.367 52.3959 920.952 54.377L933.705 57.2868C939.855 58.69 944.601 60.6092 947.944 63.0443C953.722 67.2954 956.612 73.4657 956.612 81.5552C956.612 91.6258 952.938 98.828 945.592 103.162C938.286 107.495 929.784 109.662 920.085 109.662C908.776 109.662 899.923 106.773 893.526 100.995C887.129 95.2579 883.992 87.4779 884.116 77.6549H895.693ZM1008.34 40.695H1020.66C1019.09 44.9462 1015.6 54.6453 1010.2 69.7925C1006.15 81.1838 1002.77 90.4702 1000.04 97.6517C993.606 114.574 989.066 124.892 986.425 128.606C983.783 132.321 979.243 134.178 972.805 134.178C971.236 134.178 970.019 134.116 969.152 133.992C968.326 133.869 967.295 133.642 966.056 133.311V123.158C967.996 123.695 969.4 124.025 970.266 124.149C971.133 124.273 971.897 124.335 972.557 124.335C974.621 124.335 976.127 123.984 977.076 123.282C978.067 122.622 978.892 121.796 979.553 120.806C979.759 120.476 980.502 118.783 981.781 115.729C983.061 112.675 983.99 110.405 984.567 108.919L960.051 40.695H972.681L990.449 94.68L1008.34 40.695ZM1033.14 86.1984C1033.47 89.913 1034.4 92.7608 1035.92 94.7419C1038.73 98.3327 1043.6 100.128 1050.54 100.128C1054.66 100.128 1058.29 99.2407 1061.43 97.466C1064.57 95.6499 1066.14 92.864 1066.14 89.1082C1066.14 86.2604 1064.88 84.0935 1062.36 82.6077C1060.75 81.6997 1057.57 80.6472 1052.83 79.4503L1043.97 77.2216C1038.32 75.8183 1034.15 74.2499 1031.47 72.5165C1026.68 69.5035 1024.29 65.335 1024.29 60.0108C1024.29 53.7373 1026.54 48.6607 1031.03 44.7811C1035.57 40.9014 1041.66 38.9616 1049.3 38.9616C1059.29 38.9616 1066.49 41.892 1070.9 47.7527C1073.67 51.4673 1075.01 55.4708 1074.93 59.7631H1064.4C1064.2 57.2455 1063.31 54.9548 1061.74 52.8912C1059.18 49.9608 1054.75 48.4956 1048.43 48.4956C1044.22 48.4956 1041.02 49.3004 1038.83 50.9101C1036.69 52.5197 1035.62 54.6453 1035.62 57.2868C1035.62 60.1759 1037.04 62.4871 1039.89 64.2206C1041.54 65.2524 1043.97 66.1604 1047.19 66.9446L1054.56 68.74C1062.57 70.6798 1067.93 72.5577 1070.66 74.3738C1074.99 77.2216 1077.16 81.6997 1077.16 87.8081C1077.16 93.7101 1074.91 98.8073 1070.41 103.1C1065.95 107.392 1059.14 109.538 1049.98 109.538C1040.11 109.538 1033.12 107.31 1028.99 102.852C1024.91 98.3533 1022.72 92.8021 1022.43 86.1984H1033.14ZM1088.33 22.1841H1099.6V40.695H1110.19V49.7957H1099.6V93.0704C1099.6 95.3817 1100.39 96.9294 1101.95 97.7136C1102.82 98.1676 1104.27 98.3946 1106.29 98.3946C1106.83 98.3946 1107.4 98.3946 1108.02 98.3946C1108.64 98.3533 1109.36 98.2914 1110.19 98.2089V107C1108.91 107.371 1107.57 107.64 1106.16 107.805C1104.8 107.97 1103.32 108.052 1101.71 108.052C1096.51 108.052 1092.98 106.732 1091.12 104.09C1089.26 101.408 1088.33 97.9406 1088.33 93.6895V49.7957H1079.36V40.695H1088.33V22.1841ZM1145.2 39.2092C1149.91 39.2092 1154.47 40.3236 1158.88 42.5523C1163.3 44.7398 1166.66 47.5876 1168.98 51.0958C1171.2 54.4389 1172.69 58.3392 1173.43 62.7967C1174.09 65.8509 1174.42 70.7211 1174.42 77.4073H1125.82C1126.03 84.1348 1127.62 89.5416 1130.59 93.6276C1133.56 97.6723 1138.17 99.6947 1144.4 99.6947C1150.22 99.6947 1154.86 97.7755 1158.33 93.9371C1160.31 91.7084 1161.71 89.1288 1162.54 86.1984H1173.49C1173.21 88.6335 1172.24 91.3576 1170.59 94.3705C1168.98 97.3421 1167.16 99.7772 1165.14 101.676C1161.75 104.978 1157.56 107.206 1152.57 108.362C1149.89 109.022 1146.85 109.353 1143.47 109.353C1135.21 109.353 1128.22 106.36 1122.48 100.376C1116.74 94.3498 1113.88 85.9302 1113.88 75.1167C1113.88 64.4682 1116.77 55.8216 1122.54 49.1766C1128.32 42.5317 1135.87 39.2092 1145.2 39.2092ZM1162.97 68.5543C1162.52 63.7253 1161.46 59.8663 1159.81 56.9772C1156.76 51.6117 1151.66 48.929 1144.52 48.929C1139.4 48.929 1135.11 50.7863 1131.64 54.5008C1128.18 58.1741 1126.34 62.8586 1126.13 68.5543H1162.97ZM1184.36 40.695H1195.38V50.1053C1198.03 46.8447 1200.42 44.4715 1202.57 42.9857C1206.24 40.468 1210.41 39.2092 1215.07 39.2092C1220.35 39.2092 1224.6 40.5093 1227.82 43.1095C1229.64 44.5953 1231.29 46.7828 1232.78 49.6719C1235.25 46.1224 1238.16 43.5016 1241.51 41.8094C1244.85 40.076 1248.61 39.2092 1252.77 39.2092C1261.69 39.2092 1267.76 42.4285 1270.98 48.8671C1272.71 52.334 1273.58 56.9979 1273.58 62.8586V107H1262V60.9394C1262 56.5232 1260.88 53.4897 1258.66 51.8387C1256.47 50.1878 1253.78 49.3624 1250.61 49.3624C1246.23 49.3624 1242.46 50.8275 1239.28 53.7579C1236.14 56.6883 1234.57 61.5791 1234.57 68.4305V107H1223.24V63.7253C1223.24 59.2266 1222.71 55.9454 1221.63 53.8817C1219.94 50.7863 1216.78 49.2385 1212.16 49.2385C1207.95 49.2385 1204.11 50.8688 1200.65 54.1294C1197.22 57.3899 1195.51 63.292 1195.51 71.8355V107H1184.36V40.695Z" fill="white"/>
<path d="M38.3647 74.2795H18.9654V107H0V16H39.7902C48.963 16 56.2764 18.346 61.7305 23.038C67.1846 27.73 69.9117 34.9943 69.9117 44.8311C69.9117 55.5733 67.1846 63.1669 61.7305 67.6119C56.2764 72.057 48.4878 74.2795 38.3647 74.2795ZM47.2896 55.3263C49.7687 53.145 51.0083 49.6877 51.0083 44.9545C51.0083 40.2214 49.748 36.8464 47.2276 34.8297C44.7484 32.813 41.257 31.8046 36.7532 31.8046H18.9654V58.5984H36.7532C41.257 58.5984 44.7691 57.5077 47.2896 55.3263Z" fill="white"/>
<path d="M119.219 71.3161H99.5101V107H80.8546V16H125.665C132.069 16.1235 136.986 16.9055 140.416 18.346C143.887 19.7865 146.82 21.9062 149.217 24.7049C151.2 27.0097 152.77 29.5615 153.927 32.3602C155.084 35.159 155.663 38.3487 155.663 41.9294C155.663 46.251 154.568 50.5109 152.378 54.709C150.188 58.8659 146.572 61.8087 141.531 63.5373C145.746 65.2248 148.721 67.6325 150.456 70.7605C152.233 73.8474 153.121 78.5805 153.121 84.96V91.0719C153.121 95.2289 153.287 98.0482 153.617 99.5299C154.113 101.876 155.27 103.604 157.088 104.716V107H136.077C135.499 104.983 135.086 103.358 134.838 102.123C134.342 99.571 134.073 96.9575 134.032 94.2822L133.908 85.8243C133.826 80.021 132.751 76.1522 130.685 74.2178C128.661 72.2834 124.839 71.3161 119.219 71.3161ZM130.809 54.7707C134.611 53.0421 136.511 49.626 136.511 44.5224C136.511 39.0072 134.673 35.303 130.995 33.4098C128.929 32.3397 125.83 31.8046 121.698 31.8046H99.5101V56.2524H121.141C125.438 56.2524 128.661 55.7585 130.809 54.7707Z" fill="white"/>
<path d="M221.828 88.2938H188.174L181.852 107H161.895L194.496 16H216.064L248.417 107H227.716L221.828 88.2938ZM216.498 72.6126L205.094 36.8053L193.318 72.6126H216.498Z" fill="white"/>
<path d="M254.774 16H273.739V107H254.774V16Z" fill="white"/>
<path d="M341.268 88.2938H307.614L301.292 107H281.335L313.936 16H335.504L367.857 107H347.156L341.268 88.2938ZM335.938 72.6126L324.534 36.8053L312.758 72.6126H335.938Z" fill="white"/>
<path d="M445.613 29.3351C454.538 38.2252 459 48.9469 459 61.5C459 74.4236 454.434 85.3098 445.303 94.1587C436.419 102.72 425.759 107 413.322 107C400.472 107 389.646 102.617 380.845 93.8501C372.044 85.0834 367.644 74.3001 367.644 61.5C367.644 48.206 372.395 37.1551 381.899 28.3474C390.824 20.1158 401.298 16 413.322 16C425.924 16 436.688 20.445 445.613 29.3351ZM413.322 23.7788C402.827 23.7788 393.881 27.5654 386.485 35.1384C379.213 42.5468 375.577 51.334 375.577 61.5C375.577 72.0364 379.275 80.9882 386.671 88.3555C394.026 95.7227 402.909 99.4064 413.322 99.4064C423.693 99.4064 432.556 95.7022 439.911 88.2938C447.265 80.8442 450.943 71.9129 450.943 61.5C450.943 51.3752 447.286 42.588 439.973 35.1384C432.576 27.5654 423.693 23.7788 413.322 23.7788ZM406.566 68.9701V86.8121H393.303V36.3731C396.443 36.3731 401.133 36.3937 407.372 36.4349C413.652 36.4349 417.144 36.4554 417.846 36.4966C421.854 36.7847 425.18 37.649 427.825 39.0896C432.329 41.559 434.58 45.5719 434.58 51.1282C434.58 55.3675 433.382 58.4337 430.986 60.327C428.631 62.2203 425.718 63.3521 422.247 63.7225C425.428 64.381 427.825 65.3483 429.436 66.6241C432.411 69.0113 433.899 72.7772 433.899 77.922V82.4288C433.899 82.9227 433.919 83.4166 433.961 83.9104C434.043 84.4043 434.167 84.8982 434.333 85.3921L434.766 86.8121H422.123C421.71 85.2069 421.441 82.8815 421.317 79.8358C421.193 76.7901 420.925 74.7322 420.511 73.6621C419.85 71.8924 418.611 70.6576 416.793 69.9579C415.801 69.5464 414.293 69.2788 412.268 69.1554L409.355 68.9701H406.566ZM411.71 59.8948C414.809 59.8948 417.227 59.2775 418.962 58.0427C420.697 56.808 421.565 54.8118 421.565 52.0543C421.565 49.2967 420.201 47.3829 417.474 46.3128C415.656 45.6131 413.095 45.2632 409.789 45.2632H406.566V59.8948H411.71Z" fill="white"/>
</g>
<defs>
<clipPath id="clip0_640_7042">
<rect width="1282" height="123" fill="white"/>
</clipPath>
</defs>
</svg>
